<svg width="20" height="20" viewBox="0 0 20 20" fill="none" xmlns="http://www.w3.org/2000/svg">
<path fill-rule="evenodd" clip-rule="evenodd" d="M9.99994 0C4.4862 0 0 4.48546 0 9.99999C0 15.514 4.4862 19.9994 9.99994 19.9994C15.5138 19.9994 20 15.514 20 9.99999C20 4.48546 15.5138 0 9.99994 0ZM14.8076 10.7688H10.7692V14.9994C10.7692 15.4247 10.4246 15.7693 9.99994 15.7693C9.57538 15.7693 9.2308 15.4247 9.2308 14.9994V10.7688H5.1923C4.76772 10.7688 4.42301 10.4242 4.42301 9.99999C4.42301 9.57472 4.76772 9.23116 5.1923 9.23116H9.2308V5.38386C9.2308 4.95967 9.57538 4.61504 9.99994 4.61504C10.4246 4.61504 10.7692 4.95967 10.7692 5.38386V9.23116H14.8076C15.2323 9.23116 15.5769 9.57472 15.5769 9.99999C15.5769 10.4242 15.2323 10.7688 14.8076 10.7688Z" fill="#3FDBB1"/>
</svg>
