<svg width="96" height="17" viewBox="0 0 96 17" fill="none" xmlns="http://www.w3.org/2000/svg">
<path d="M7.46875 0.5625C7.59375 0.3125 7.75 0.15625 8 0.0625C8.25 0 8.46875 0 8.71875 0.0625C8.96875 0.15625 9.15625 0.3125 9.28125 0.5625L11.3125 4.6875L15.875 5.34375C16.125 5.40625 16.3438 5.53125 16.5 5.71875C16.6562 5.9375 16.7188 6.15625 16.7188 6.40625C16.7188 6.65625 16.625 6.875 16.4375 7.0625L13.125 10.2812L13.9062 14.8438C13.9375 15.0938 13.875 15.3438 13.75 15.5625C13.625 15.7812 13.4375 15.9062 13.1875 15.9688C12.9375 16.0312 12.6875 16 12.4688 15.875L8.375 13.75L4.28125 15.875C4.03125 16 3.8125 16.0312 3.5625 15.9688C3.3125 15.9062 3.09375 15.7812 2.96875 15.5625C2.84375 15.3438 2.78125 15.0938 2.84375 14.8438L3.625 10.2812L0.3125 7.0625C0.125 6.875 0 6.65625 0 6.40625C0 6.15625 0.0625 5.9375 0.21875 5.71875C0.375 5.53125 0.59375 5.40625 0.875 5.34375L5.4375 4.6875L7.46875 0.5625ZM27.0688 0.5625C27.1938 0.3125 27.35 0.15625 27.6 0.0625C27.85 0 28.0688 0 28.3188 0.0625C28.5688 0.15625 28.7563 0.3125 28.8813 0.5625L30.9125 4.6875L35.475 5.34375C35.725 5.40625 35.9438 5.53125 36.1 5.71875C36.2563 5.9375 36.3188 6.15625 36.3188 6.40625C36.3188 6.65625 36.225 6.875 36.0375 7.0625L32.725 10.2812L33.5063 14.8438C33.5375 15.0938 33.475 15.3438 33.35 15.5625C33.225 15.7812 33.0375 15.9062 32.7875 15.9688C32.5375 16.0312 32.2875 16 32.0688 15.875L27.975 13.75L23.8813 15.875C23.6313 16 23.4125 16.0312 23.1625 15.9688C22.9125 15.9062 22.6938 15.7812 22.5688 15.5625C22.4438 15.3438 22.3813 15.0938 22.4438 14.8438L23.225 10.2812L19.9125 7.0625C19.725 6.875 19.6 6.65625 19.6 6.40625C19.6 6.15625 19.6625 5.9375 19.8188 5.71875C19.975 5.53125 20.1938 5.40625 20.475 5.34375L25.0375 4.6875L27.0688 0.5625ZM46.6688 0.5625C46.7938 0.3125 46.95 0.15625 47.2 0.0625C47.45 0 47.6688 0 47.9188 0.0625C48.1688 0.15625 48.3563 0.3125 48.4813 0.5625L50.5125 4.6875L55.075 5.34375C55.325 5.40625 55.5438 5.53125 55.7 5.71875C55.8563 5.9375 55.9188 6.15625 55.9188 6.40625C55.9188 6.65625 55.825 6.875 55.6375 7.0625L52.325 10.2812L53.1063 14.8438C53.1375 15.0938 53.075 15.3438 52.95 15.5625C52.825 15.7812 52.6375 15.9062 52.3875 15.9688C52.1375 16.0312 51.8875 16 51.6688 15.875L47.575 13.75L43.4813 15.875C43.2313 16 43.0125 16.0312 42.7625 15.9688C42.5125 15.9062 42.2938 15.7812 42.1688 15.5625C42.0438 15.3438 41.9813 15.0938 42.0438 14.8438L42.825 10.2812L39.5125 7.0625C39.325 6.875 39.2 6.65625 39.2 6.40625C39.2 6.15625 39.2625 5.9375 39.4188 5.71875C39.575 5.53125 39.7938 5.40625 40.075 5.34375L44.6375 4.6875L46.6688 0.5625ZM66.2687 0.5625C66.3937 0.3125 66.55 0.15625 66.8 0.0625C67.05 0 67.2687 0 67.5187 0.0625C67.7687 0.15625 67.9562 0.3125 68.0812 0.5625L70.1125 4.6875L74.675 5.34375C74.925 5.40625 75.1437 5.53125 75.3 5.71875C75.4562 5.9375 75.5187 6.15625 75.5187 6.40625C75.5187 6.65625 75.425 6.875 75.2375 7.0625L71.925 10.2812L72.7062 14.8438C72.7375 15.0938 72.675 15.3438 72.55 15.5625C72.425 15.7812 72.2375 15.9062 71.9875 15.9688C71.7375 16.0312 71.4875 16 71.2687 15.875L67.175 13.75L63.0812 15.875C62.8312 16 62.6125 16.0312 62.3625 15.9688C62.1125 15.9062 61.8937 15.7812 61.7687 15.5625C61.6437 15.3438 61.5812 15.0938 61.6437 14.8438L62.425 10.2812L59.1125 7.0625C58.925 6.875 58.8 6.65625 58.8 6.40625C58.8 6.15625 58.8625 5.9375 59.0187 5.71875C59.175 5.53125 59.3937 5.40625 59.675 5.34375L64.2375 4.6875L66.2687 0.5625Z" fill="#F6C416"/>
<path d="M85.8688 0.5625C85.9938 0.3125 86.15 0.15625 86.4 0.0625C86.65 0 86.8688 0 87.1188 0.0625C87.3688 0.15625 87.5563 0.3125 87.6813 0.5625L89.7125 4.6875L94.275 5.34375C94.525 5.40625 94.7438 5.53125 94.9 5.71875C95.0563 5.9375 95.1188 6.15625 95.1188 6.40625C95.1188 6.65625 95.025 6.875 94.8375 7.0625L91.525 10.2812L92.3063 14.8438C92.3375 15.0938 92.275 15.3438 92.15 15.5625C92.025 15.7812 91.8375 15.9062 91.5875 15.9688C91.3375 16.0312 91.0875 16 90.8688 15.875L86.775 13.75L82.6813 15.875C82.4313 16 82.2125 16.0312 81.9625 15.9688C81.7125 15.9062 81.4938 15.7812 81.3688 15.5625C81.2438 15.3438 81.1813 15.0938 81.2438 14.8438L82.025 10.2812L78.7125 7.0625C78.525 6.875 78.4 6.65625 78.4 6.40625C78.4 6.15625 78.4625 5.9375 78.6188 5.71875C78.775 5.53125 78.9938 5.40625 79.275 5.34375L83.8375 4.6875L85.8688 0.5625Z" fill="#E4E4E4"/>
</svg>
